<svg xmlns="http://www.w3.org/2000/svg" width="256" height="256"><path fill-opacity=".016" d="M0 128.004v128.004l128.25-.254 128.25-.254.254-127.75L257.008 0H0v128.004m.485.496c0 70.4.119 99.053.265 63.672.146-35.38.146-92.98 0-128C.604 29.153.485 58.1.485 128.5" fill="#1976D2" fill-rule="evenodd"/><path fill-opacity=".179" d="M0 128.004v128.004l128.25-.254 128.25-.254.254-127.75L257.008 0H0v128.004m.485.496c0 70.4.119 99.053.265 63.672.146-35.38.146-92.98 0-128C.604 29.153.485 58.1.485 128.5m158.877-85c-.317.825-1.349 1.5-2.295 1.5-.945 0-2.762 1.111-4.038 2.469-1.276 1.358-2.653 2.263-3.061 2.011-.408-.252-1.297.212-1.977 1.031-.68.819-2.081 1.489-3.113 1.489-1.033 0-1.878.45-1.878 1s-.694 1-1.542 1c-.848 0-2.529.92-3.736 2.045-3.611 3.364-7.746 4.955-12.876 4.955-2.665 0-4.846.45-4.846 1s-.9 1-2 1-2 .36-2 .8c0 2.181 2.93 3.2 9.2 3.2 3.867 0 6.8.431 6.8 1 0 .55 1.722 1 3.826 1 2.787 0 4.463-.678 6.174-2.5 1.292-1.375 2.945-2.5 3.674-2.5.729 0 1.326-.723 1.326-1.606 0-.883 1.125-2.491 2.5-3.573 1.375-1.081 2.5-2.647 2.5-3.48 0-.833 2.475-3.931 5.5-6.884 3.025-2.953 5.5-5.614 5.5-5.913 0-1.242-3.108-.425-3.638.956M108.2 76.2c-.66.66-1.2 1.988-1.2 2.95 0 .963-.746 2.168-1.658 2.679-1.431.8-1.571 2.16-1.023 9.889.499 7.024.324 9.374-.81 10.871-.996 1.318-1.455 4.611-1.477 10.602-.018 4.78-.482 8.969-1.032 9.309-.55.34-1.014 4.529-1.032 9.309-.02 5.51-.504 9.313-1.322 10.39-.776 1.02-1.233 4.152-1.145 7.849.102 4.29-.254 6.304-1.177 6.658-.98.376-1.324 3.19-1.324 10.842 0 5.811-.438 10.604-1 10.952-.55.34-1 4.191-1 8.559 0 4.627.417 7.941 1 7.941.55 0 1 .879 1 1.953 0 3.207 2.2 7.047 4.038 7.047.944 0 2.273.67 2.953 1.489.68.819 1.584 1.274 2.009 1.011.425-.263 1.329.192 2.009 1.011.68.819 2.081 1.489 3.113 1.489 1.033 0 1.878.45 1.878 1s1.977 1 4.393 1c2.982 0 4.578.482 4.969 1.5.805 2.1 8.638 2.1 8.638 0 0-1.127 1.205-1.5 4.846-1.5 4.614 0 10.436-2.03 11.703-4.08.324-.524.986-.708 1.47-.408.485.299 3.309-1.884 6.277-4.852 4.587-4.587 5.331-5.841 4.96-8.367-.274-1.871.153-3.559 1.154-4.56 1.756-1.757 2.166-5.733.59-5.733-.55 0-1 .9-1 2s-.45 2-1 2-1 .791-1 1.758c0 2.21-10.116 12.242-12.345 12.242-.91 0-1.655.45-1.655 1s-.873 1-1.941 1-2.219.45-2.559 1c-.34.55-1.661 1-2.937 1-1.275 0-2.878.675-3.563 1.5-1.664 2.005-6.484 1.896-11.147-.25l-3.801-1.75-.026-18.55c-.018-13.085.326-18.902 1.169-19.745.799-.799 1.106-4.288.924-10.515-.218-7.497.037-9.575 1.305-10.627 1.189-.987 1.576-3.231 1.576-9.15 0-8.519.896-9.913 6.375-9.913 1.379 0 2.785-.45 3.125-1 .34-.55 2.319-1 4.398-1 3.12 0 4.42-.691 7.441-3.956 3.326-3.595 3.661-4.48 3.661-9.672 0-3.922.521-6.29 1.661-7.549.913-1.01 1.352-2.143.976-2.519-.955-.955-10.637 8.771-10.637 10.686 0 1.749-3.383 5.01-5.197 5.01-.646 0-2.168.934-3.383 2.075-1.917 1.801-2.485 1.901-4.314.759-1.935-1.208-2.106-2.212-2.106-12.375 0-7.056.42-11.479 1.16-12.219 1.576-1.576 1.642-7.379.091-7.974-.688-.264-1.251-1.195-1.251-2.068 0-2.205-4.986-7.198-7.187-7.198-.997 0-1.813-.45-1.813-1 0-1.407-5.351-1.249-6.8.2m-1.58 68.842c-1.49 1.673-3.846 3.474-5.234 4.001-3.48 1.324-3.015 5.457.614 5.457 1.826 0 2.421-.472 2.206-1.75-.33-1.967.851-2.293 2.465-.679.762.762 1.687.29 3.2-1.635 2.226-2.828 2.534-4.217 1.522-6.854-.862-2.247-1.697-1.992-4.773 1.46m-2.609 14.445c-1.275 1.536-.745 4.513.803 4.513 1.523 0 4.411-3.827 3.725-4.937-.936-1.515-3.086-1.314-4.528.424m-2.302 10.137c-1.742 1.742-.618 3.498 2.041 3.192 1.637-.188 2.75-.923 2.75-1.816 0-1.572-3.57-2.597-4.791-1.376m59.848 6.284c-.308.499-.139 1.961.378 3.25.878 2.191.942 2.132 1.002-.908.064-3.286-.356-3.999-1.38-2.342" fill="#1976D2" fill-rule="evenodd"/><path fill-opacity=".563" d="M0 128.004v128.004l128.25-.254 128.25-.254.254-127.75L257.008 0H0v128.004m.485.496c0 70.4.119 99.053.265 63.672.146-35.38.146-92.98 0-128C.604 29.153.485 58.1.485 128.5M173 15.5c0 1 1 1.5 3 1.5 3.206 0 4.03-1.391 1.418-2.393-2.68-1.028-4.418-.677-4.418.893m-15.787 27.959c-1.259.695-3.317 2.23-4.575 3.411-1.257 1.182-2.526 1.908-2.82 1.615-.293-.293-1.102.153-1.798.991S146.204 51 145.531 51c-1.797 0-7.132 2.814-8.531 4.5-2.093 2.522-7.148 4.5-11.5 4.5-4.781 0-10.5 2.472-10.5 4.538 0 2.251 3.454 3.462 9.875 3.462 3.304 0 6.285.45 6.625 1 .34.55 2.313 1 4.385 1 2.725 0 4.416-.691 6.115-2.5 1.292-1.375 2.956-2.5 3.699-2.5.743 0 1.738-1.013 2.211-2.25.473-1.237 1.802-3.098 2.952-4.134 1.15-1.036 1.872-2.237 1.605-2.67-.267-.432 2.218-3.366 5.523-6.518 3.306-3.153 6.01-6.114 6.01-6.58 0-1.231-4.124-.859-6.787.611M107.75 75.392c-.963.731-1.75 2.254-1.75 3.385 0 1.131-.562 2.244-1.25 2.473-.884.295-1.25 3.229-1.25 10.032 0 6.358-.423 10.039-1.25 10.867-.809.81-1.25 4.333-1.25 9.992 0 4.808-.45 9.019-1 9.359-.552.341-1 4.844-1 10.059 0 5.627-.404 9.441-1 9.441-.576 0-1 3.131-1 7.393 0 5.852-.333 7.521-1.599 8.006-1.344.516-1.543 2.115-1.25 10.057.245 6.628-.024 9.816-.901 10.694-1.791 1.791-1.719 17.733.083 18.424.734.282 1.334 1.8 1.334 3.374 0 3.073 2.283 6.052 4.639 6.052.797 0 2.005.67 2.685 1.489.68.819 1.584 1.274 2.009 1.011.425-.263 1.329.192 2.009 1.011.68.819 2.081 1.489 3.113 1.489 1.033 0 1.878.45 1.878 1s2.025 1 4.5 1 4.5.45 4.5 1c0 1.305 8.694 1.305 9.5 0 .34-.55 2.815-1 5.5-1s5.16-.45 5.5-1c.34-.55 1.443-1 2.452-1s2.104-.704 2.434-1.563c.33-.86 1.066-1.276 1.635-.924.57.352 3.498-1.731 6.507-4.63 4.924-4.742 5.472-5.69 5.472-9.469 0-2.811.496-4.39 1.5-4.776.877-.336 1.5-1.835 1.5-3.607 0-1.667.477-3.031 1.06-3.031 1.342 0 .806-6.958-.56-7.271-.55-.126-1.15 1.121-1.334 2.771-.183 1.65-.972 3.712-1.752 4.581-.78.87-1.182 1.818-.892 2.108.289.289-.16 1.095-.998 1.791S156 187.879 156 188.653c0 1.442-9.632 11.347-11.034 11.347-.701 0-4.06 1.53-12.297 5.601-3.704 1.83-7.616 1.771-11.515-.174L118 203.854v-18.227c0-12.202.373-18.6 1.129-19.356.708-.708 1.062-4.697.949-10.712-.146-7.846.103-9.691 1.372-10.178 1.214-.466 1.55-2.262 1.55-8.288 0-8.435.845-10.093 5.141-10.093 1.508 0 3.019-.45 3.359-1 .34-.55 2.279-1.011 4.309-1.025 2.916-.02 4.583-.867 7.941-4.036 4.148-3.915 4.25-4.166 4.25-10.475 0-3.643.436-6.464 1-6.464.55 0 1-1.125 1-2.5s-.418-2.5-.929-2.5c-1.564 0-11.026 10.393-11.049 12.136-.012.9-1.485 2.375-3.272 3.278-1.787.903-3.976 2.15-4.864 2.773-.888.622-2.35.849-3.25.504-1.378-.529-1.636-2.369-1.636-11.66 0-6.687.394-11.031 1-11.031.55 0 1-1.998 1-4.441 0-2.443-.45-4.719-1-5.059-.55-.34-1-1.301-1-2.136 0-1.968-5.396-7.364-7.364-7.364-.835 0-1.796-.45-2.136-1-.879-1.423-5.679-1.18-7.75.392m-.952 70.544c-2.581 2.712-2.622 2.913-.913 4.46 1.655 1.498 1.916 1.481 3.453-.217 1.653-1.827 2.343-7.223.912-7.131-.412.027-1.966 1.326-3.452 2.888M100 152c0 1.333.667 2 2 2s2-.667 2-2-.667-2-2-2-2 .667-2 2m4.345 8.543c-.326.849-.322 1.813.007 2.143.713.712 3.648-1.548 3.648-2.808 0-1.51-3.032-.957-3.655.665M102.5 171c-.34.55.335 1 1.5 1s1.84-.45 1.5-1c-.34-.55-1.015-1-1.5-1-.485 0-1.16.45-1.5 1" fill="#1976D2" fill-rule="evenodd"/><path fill-opacity=".978" d="M0 128.004v128.004l128.25-.254 128.25-.254.254-127.75L257.008 0H0v128.004m.485.496c0 70.4.119 99.053.265 63.672.146-35.38.146-92.98 0-128C.604 29.153.485 58.1.485 128.5M47.452 13.491c-1.599 1.159-2.807 1.263-5.5.472-2.085-.611-8.121-.747-15.244-.343-10.283.583-11.926.918-12.838 2.622-.575 1.075-.956 6.523-.847 12.106.109 5.584.196 46.377.193 90.652-.002 44.275.06 90.4.14 102.5l.144 22 37-.079c20.35-.044 39.475-.146 42.5-.228 3.025-.082 35.989.021 73.253.229 37.264.207 67.984.003 68.267-.454.282-.457-.45-1.506-1.627-2.33-1.839-1.289-7.407-1.434-39.618-1.031-27.94.35-37.841.168-38.902-.712-1.01-.839-3.515-.95-8.648-.384-9.236 1.018-123.762 1.238-124.379.239-.255-.413-1.257-.75-2.226-.75-1.547 0-1.775-1.126-1.873-9.25-.061-5.088-.226-11.5-.366-14.25-.293-5.735-.035-31.76.351-35.5.212-2.052.066-42.688-.33-92-.042-5.225.016-18.95.129-30.5s-.091-25.387-.454-30.75c-.528-7.814-.393-9.75.682-9.75.738 0 1.84.499 2.449 1.108.708.708 2.858.862 5.95.427 2.663-.375 8.892-.552 13.842-.393 8.67.278 16.021.187 20.75-.257 1.237-.116 5.175-.2 8.75-.186 40.755.155 53.481-.247 53.76-1.699.245-1.272-1.878-1.519-13.985-1.624-7.851-.068-24.4-.404-36.775-.747-19.009-.526-22.818-.392-24.548.862M140 13.237c-2.475.463-6.111.606-8.08.318-4.142-.607-8.159 1.559-6.333 3.415.67.681 2.012.797 3.5.302 1.327-.441 5.338-.682 8.913-.535 9.703.399 12.725.397 21.5-.011 4.57-.213 9.842.159 12.298.867 2.924.844 5.321.942 7.5.309 1.761-.513 8.435-.693 14.831-.401 11.119.508 11.653.441 12.167-1.525.437-1.672 1.066-1.94 3.371-1.432 1.558.342 3.508.886 4.333 1.208.825.322 7.125.621 14 .666l12.5.082.31 8.5c.171 4.675.423 18.625.559 31 .278 25.106.277 25.091 1.638 23 .591-.908.928-14.342.854-34.029l-.122-32.529-49.62-.023c-27.29-.013-51.644.355-54.119.818m18.171 28.795c-1.832.991-4.216 2.603-5.298 3.583-1.083.98-2.727 1.893-3.653 2.029-.926.136-1.842.722-2.035 1.302-.193.579-1.005 1.054-1.804 1.054-1.516 0-5.602 2.3-8.679 4.886-.989.831-2.556 1.622-3.482 1.758-.926.136-1.842.722-2.035 1.302-.193.579-2.452 1.076-5.018 1.102-9.902.102-16.14 6.486-8.729 8.932 1.953.644 5.578 1.047 8.056.895 2.539-.156 5.028.247 5.705.924 1.942 1.942 8.25 1.468 10.278-.773.983-1.086 2.633-2.243 3.667-2.572 1.033-.328 3.857-3.602 6.275-7.275 2.417-3.673 6.462-8.685 8.988-11.137 5.109-4.959 5.36-5.568 2.843-6.892-1.215-.639-2.768-.369-5.079.882M14.158 60c0 1.375.227 1.938.504 1.25.278-.687.278-1.812 0-2.5-.277-.687-.504-.125-.504 1.25m93.209 14.772c-3.582 2.902-4.442 5.854-4.659 15.991-.114 5.355-.515 9.969-.889 10.254-.811.614-2.85 18.024-3.51 29.977-.259 4.672-.877 8.985-1.374 9.585-.498.599-1.017 3.977-1.153 7.505-.136 3.529-.688 6.727-1.228 7.107-.539.38-1.03 5.212-1.09 10.739-.06 5.527-.414 10.354-.787 10.726-1.206 1.206-.736 20.119.573 23.047 1.811 4.051 3.94 6.297 5.972 6.297.978 0 1.778.35 1.778.777 0 1.423 12.396 5.983 19.783 7.279 5.55.973 7.561 1 8.45.111.642-.642 3.022-1.167 5.29-1.167 9.599 0 25.164-11.663 25.709-19.264.148-2.053.547-3.733.888-3.734.577-.002 1.955-4.645 3.367-11.348.744-3.535-1.099-6.221-3.12-4.544-.752.624-1.367 1.693-1.367 2.374 0 2.773-6.074 14.258-9.365 17.708-3.004 3.149-10.648 7.507-18.135 10.339-2.117.8-6.199.743-10.75-.15l-2.75-.54v-16.986c0-10.457.423-17.778 1.102-19.045.606-1.132 1.515-8.865 2.021-17.184s1.378-16.813 1.938-18.876c.88-3.237 1.416-3.75 3.92-3.75 1.596 0 3.179-.45 3.519-1 .34-.55 2.279-1.011 4.309-1.025 2.898-.02 4.578-.862 7.82-3.923 3.639-3.436 4.267-4.707 5.295-10.725.642-3.755 1.421-8.29 1.731-10.077.517-2.98.347-3.25-2.046-3.25-1.435 0-2.609.503-2.609 1.117 0 .615-1.912 3.161-4.25 5.659-8.955 9.569-12.181 12.307-14.157 12.016-1.825-.269-1.989-1.106-2.039-10.443-.03-5.583.236-9.973.591-9.756 1.019.624 1.855-2.401 1.855-6.71 0-5.843-4.487-11.906-11.404-15.412-3.791-1.921-6.599-1.829-9.229.301M242 88.441c0 3.706.435 6.559 1 6.559.554 0 1-2.647 1-5.941 0-3.268-.45-6.219-1-6.559-.628-.388-1 1.823-1 5.941m-.289 25.557c-.338 1.293-.217 3.06.27 3.927.801 1.426.941 1.427 1.488.01.332-.861.21-2.628-.27-3.927l-.874-2.361-.614 2.351m-134.513 32.397c-1.985 1.96-2.101 2.441-.839 3.488 1.695 1.407 2.881.139 3.4-3.633.374-2.717.334-2.715-2.561.145M100.5 152c.34.55 1.041 1 1.559 1s.941-.45.941-1-.702-1-1.559-1-1.281.45-.941 1m4 9c-.34.55-.168 1 .382 1s1.278-.45 1.618-1c.34-.55.168-1-.382-1s-1.278.45-1.618 1" fill="#1976D2" fill-rule="evenodd"/></svg>